<svg viewBox="0 0 1600 600" xmlns="http://www.w3.org/2000/svg">
  <defs>
    <linearGradient id="sea" x1="0" y1="0" x2="1" y2="1">
      <stop offset="0%" stop-color="#0b1830"/>
      <stop offset="100%" stop-color="#231121"/>
    </linearGradient>
    <linearGradient id="sun" x1="0" y1="0" x2="0" y2="1">
      <stop offset="0%" stop-color="#ffd391" stop-opacity="0.6"/>
      <stop offset="100%" stop-color="#ffd391" stop-opacity="0"/>
    </linearGradient>
  </defs>
  <rect width="100%" height="100%" fill="url(#sea)"/>
  <circle cx="1300" cy="120" r="120" fill="url(#sun)"/>
  <g fill="#ffffff" opacity="0.12">
    <path d="M200 400 C400 360, 900 360, 1200 400 L1600 450 L0 450 Z"/>
    <path d="M260 430 C560 390, 980 390, 1280 430 L1600 480 L0 480 Z"/>
  </g>
  <g fill="#ffffff" opacity="0.95">
    <path d="M480 320 C620 300, 820 280, 980 270 C1040 268, 1110 275, 1125 285 C1100 290, 1060 305, 1010 325 L500 330 Z"/>
    <rect x="720" y="250" width="60" height="40" rx="4"/>
    <rect x="790" y="240" width="120" height="50" rx="6"/>
    <rect x="920" y="232" width="90" height="58" rx="6"/>
    <path d="M845 232 L845 180 L875 232 Z"/>
  </g>
</svg>